<?xml version="1.0" encoding="utf-8"?>
<!-- Generator: Adobe Illustrator 21.1.0, SVG Export Plug-In . SVG Version: 6.00 Build 0)  -->
<svg version="1.1" id="Layer_1" xmlns="http://www.w3.org/2000/svg" xmlns:xlink="http://www.w3.org/1999/xlink" x="0px" y="0px"
	 width="27px" height="27px" viewBox="0 0 27 27" enable-background="new 0 0 27 27" xml:space="preserve">
<g opacity="0.2">
	<path d="M24,27H5c-1.65,0-3-1.35-3-3V5c0-1.65,1.35-3,3-3h19c1.65,0,3,1.35,3,3v19C27,25.65,25.65,27,24,27z"/>
</g>
<g>
	<path fill="#333333" d="M3,24c-1.103,0-2-0.8975-2-2V3c0-1.103,0.897-2,2-2h19c1.1025,0,2,0.897,2,2v19c0,1.1025-0.8975,2-2,2H3z"
		/>
	<path fill="#FFFFFF" d="M22,2c0.5421,0,1,0.4579,1,1v19c0,0.5421-0.4579,1-1,1H3c-0.5421,0-1-0.4579-1-1V3c0-0.5421,0.4579-1,1-1
		H22 M22,0H3C1.35,0,0,1.35,0,3v19c0,1.65,1.35,3,3,3h19c1.65,0,3-1.35,3-3V3C25,1.35,23.65,0,22,0L22,0z"/>
</g>
<g>
	<rect x="8" y="4" fill="#333333" width="9" height="17"/>
</g>
<polygon fill="#FFFFFF" points="8,21 8,20 11,19 11,18 14,18 14,19 17,20.0444 17,21 "/>
<polygon fill="#FFFFFF" points="10,16 11,18 14,18 15,16 "/>
<path fill="#FFFFFF" d="M16.0563,8.7748C16.1009,7.8031,17,5,17,5H8c0,0,1.1775,2.8306,0.9437,3.7748
	C8.6224,10.0726,7.5,11.0081,7.5,12c0,2.7614,2.2386,5,5,5s5-2.2386,5-5C17.5,11.0081,16,10,16.0563,8.7748z"/>
<path fill="#FFF19F" d="M12.5,16c-2.2056,0-4-1.7939-4-4c0-0.2417,0.2593-0.6611,0.5103-1.0664
	c0.3354-0.542,0.7158-1.1562,0.9043-1.9185C10.0981,8.2734,9.79,7.0347,9.4438,6h6.2075c-0.2656,0.9287-0.5645,2.0933-0.5938,2.7295
	c-0.0459,0.9937,0.5098,1.7881,0.9551,2.4268C16.1943,11.415,16.4971,11.8481,16.5,12C16.5,14.2061,14.7061,16,12.5,16z"/>
</svg>
