<?xml version="1.0" encoding="utf-8"?>
<!-- Generator: Adobe Illustrator 21.1.0, SVG Export Plug-In . SVG Version: 6.00 Build 0)  -->
<svg version="1.1" id="Layer_1" xmlns="http://www.w3.org/2000/svg" xmlns:xlink="http://www.w3.org/1999/xlink" x="0px" y="0px"
	 width="27px" height="27px" viewBox="0 0 27 27" enable-background="new 0 0 27 27" xml:space="preserve">
<g opacity="0.2">
	<path d="M24,27H5c-1.65,0-3-1.35-3-3V5c0-1.65,1.35-3,3-3h19c1.65,0,3,1.35,3,3v19C27,25.65,25.65,27,24,27z"/>
</g>
<g>
	<path fill="#333333" d="M3,24c-1.103,0-2-0.8975-2-2V3c0-1.103,0.897-2,2-2h19c1.1025,0,2,0.897,2,2v19c0,1.1025-0.8975,2-2,2H3z"
		/>
	<path fill="#FFFFFF" d="M22,2c0.5421,0,1,0.4579,1,1v19c0,0.5421-0.4579,1-1,1H3c-0.5421,0-1-0.4579-1-1V3c0-0.5421,0.4579-1,1-1
		H22 M22,0H3C1.35,0,0,1.35,0,3v19c0,1.65,1.35,3,3,3h19c1.65,0,3-1.35,3-3V3C25,1.35,23.65,0,22,0L22,0z"/>
</g>
<circle fill="#363330" cx="36.5" cy="10.5" r="6.5"/>
<path fill="#FFFFFF" d="M33,13l-1.5593,0.0009c0,0-0.2049-0.3727-0.2278-0.5845c-0.0348-0.3222,0.003-0.6632,0.1747-0.938
	c0.1717-0.2748,0.4959-0.4675,0.8166-0.4209c-0.2409-0.5803-0.3755-1.2431-0.1631-1.8344S33.3956,8.8285,34,9
	c-0.1039-0.1947-0.5359-1.1032-0.4015-1.2782C33.733,7.5468,33.8057,7.1046,34,7c0.3721-0.2003,0.8913-0.055,1.313-0.0812
	c0.4218-0.0262,0.8777,0.1329,1.1047,0.4894c0.2299,0.3611,0.1812,0.826,0.1243,1.2502c0.4261-0.1702,0.899-0.2212,1.3517-0.146
	c0.1784,0.0297,0.3584,0.0809,0.5019,0.191c0.2325,0.1785,0.3335,0.4913,0.3133,0.7837c-0.0202,0.2924-0.1463,0.5675-0.2981,0.8182
	c0.3693-0.0601,0.7247-0.1923,1.0956-0.241c0.371-0.0487,0.7815,0.0009,1.0556,0.2556c0.2109,0.196,0.3112,0.4884,0.3312,0.7756
	c0.02,0.2872-0.0321,0.574-0.0839,0.8572C41.2968,12.0351,41.5123,11.9177,42,12c-0.412,0.3062,0.4316,0.7262,0,1
	c-0.2328,0.1477-1,0-1,0h-1h-5H33z"/>
<path fill="#FFFFFF" d="M6.9089,16.589l-2.3794,0.0014c0,0-0.3127-0.5688-0.3476-0.8919c-0.0531-0.4916,0.0046-1.012,0.2666-1.4314
	s0.7568-0.7134,1.2462-0.6423c-0.3677-0.8855-0.5729-1.8969-0.2489-2.7993c0.324-0.9024,2.0668-0.6021,2.9891-0.3404
	C8.2763,10.1881,7.617,8.8016,7.8222,8.5346c0.2052-0.267,0.3162-0.9419,0.6127-1.1014c0.5678-0.3056,1.3601-0.084,2.0037-0.1239
	s1.3394,0.2028,1.6857,0.7468c0.3508,0.551,0.2765,1.2604,0.1896,1.9078c0.6502-0.2597,1.3719-0.3376,2.0626-0.2227
	c0.2722,0.0453,0.5469,0.1235,0.7658,0.2915c0.3548,0.2723,0.5089,0.7497,0.478,1.1959s-0.2233,0.866-0.4549,1.2486
	c0.5635-0.0916,1.1058-0.2935,1.6719-0.3678c0.5661-0.0743,1.1926,0.0014,1.6108,0.39c0.3218,0.2991,0.4749,0.7453,0.5054,1.1836
	c0.0306,0.4383-0.0489,0.8759-0.1281,1.3081c0.7442,0.1256,1.0731-0.0536,1.8173,0.0721c-0.6288,0.4673,0.6586,1.1081,0,1.526
	c-0.3552,0.2254-1.526,0-1.526,0h-1.526H9.9609H6.9089z"/>
</svg>
