<?xml version="1.0" encoding="utf-8"?>
<!-- Generator: Adobe Illustrator 21.1.0, SVG Export Plug-In . SVG Version: 6.00 Build 0)  -->
<svg version="1.1" id="Layer_1" xmlns="http://www.w3.org/2000/svg" xmlns:xlink="http://www.w3.org/1999/xlink" x="0px" y="0px"
	 width="27px" height="27px" viewBox="0 0 27 27" enable-background="new 0 0 27 27" xml:space="preserve">
<g opacity="0.2">
	<path d="M24,27H5c-1.65,0-3-1.35-3-3V5c0-1.65,1.35-3,3-3h19c1.65,0,3,1.35,3,3v19C27,25.65,25.65,27,24,27z"/>
</g>
<g>
	<path fill="#333333" d="M3,24c-1.103,0-2-0.8975-2-2V3c0-1.103,0.897-2,2-2h19c1.1025,0,2,0.897,2,2v19c0,1.1025-0.8975,2-2,2H3z"
		/>
	<path fill="#FFFFFF" d="M22,2c0.5421,0,1,0.4579,1,1v19c0,0.5421-0.4579,1-1,1H3c-0.5421,0-1-0.4579-1-1V3c0-0.5421,0.4579-1,1-1
		H22 M22,0H3C1.35,0,0,1.35,0,3v19c0,1.65,1.35,3,3,3h19c1.65,0,3-1.35,3-3V3C25,1.35,23.65,0,22,0L22,0z"/>
</g>
<circle fill="#363330" cx="47.5" cy="11.5" r="6.5"/>
<path fill="#FFFFAC" d="M51.9445,15.6995C51.9771,15.6341,52,15.5678,52,15.5c0-0.0596-0.0167-0.118-0.0421-0.1757
	C51.7696,14.8195,51,13.7386,51,13c0-1.4217,0-3,0-3l-1-1.0002V11l-1,1V6h-2v6l-1-1V7l-1,1c0,0-1,2,0,3s-1,3-1,4
	c0,0.191,0.0022,0.336,0.0092,0.461C44.0084,15.4742,44,15.4866,44,15.5c0,0.0215,0.0127,0.0416,0.0148,0.0629
	c0.009,0.0883,0.026,0.157,0.0501,0.2131C44.3678,16.4722,45.7875,17,47.5,17c1.5196,0,3.4257-0.4158,4.1737-0.9958
	C51.8065,15.9406,51.8926,15.834,51.9445,15.6995z"/>
<path fill="#FFD32B" d="M-2.5234,17.7135C-3.2393,16.621-4.1983,16.3357-4.2292,15c-0.0528-2.2813,0.5226-3.8743-0.0208-5
	c-0.4375-0.9062-1-1.1253-1-1.1253s0,2.1253,0,3.2503c0,0.853-3,1.625-3,1.625V4h-2v9.75c0,0-2-0.9808-2-1.625c0-1.125,0-6.5,0-6.5
	s-1.1267,1.1543-1.375,1.625c-0.5226,0.9907-1.625,3.25,0,4.875s-1.625,4.875-1.625,6.5c0,0.3103,0.0036,0.546,0.0149,0.7491
	c-0.0013,0.0215-0.0149,0.0417-0.0149,0.0634c0,0.035,0.0206,0.0675,0.024,0.1022c0.0147,0.1434,0.0423,0.2551,0.0814,0.3462
	c0.4922,1.1315,2.7993,1.9891,5.5821,1.9891c2.4693,0,6.136-0.9456,6.7823-1.6182C-2.4382,19.9-1.9375,18.5938-2.5234,17.7135z"/>
<rect x="49" y="14" fill="#363330" width="1" height="1"/>
<rect x="48" y="15" fill="#363330" width="1" height="1"/>
<g>
	<circle fill="#666666" cx="12.5" cy="13.5" r="6.5"/>
</g>
<rect x="4" y="3" fill="#FFFFFF" width="1" height="1"/>
<rect x="6" y="3" fill="#FF3300" width="1" height="1"/>
<rect x="10" y="3" fill="#FFFFFF" width="1" height="3"/>
<rect x="12" y="3" fill="#FFFFFF" width="1" height="3"/>
<rect x="14" y="3" fill="#FFFFFF" width="1" height="3"/>
<rect x="16" y="3" fill="#FFFFFF" width="1" height="1"/>
<rect x="18" y="3" fill="#FFFFFF" width="2" height="1"/>
<g>
	<rect x="2" y="5" fill="#666666" width="21" height="1"/>
</g>
<g>
	<circle fill="#333333" cx="32" cy="14" r="4"/>
</g>
<line fill="none" stroke="#333333" stroke-miterlimit="10" x1="4" y1="7" x2="18" y2="21"/>
<line fill="none" stroke="#333333" stroke-miterlimit="10" x1="6.5" y1="6.5" x2="21" y2="21"/>
<line fill="none" stroke="#333333" stroke-miterlimit="10" x1="9.5" y1="6.5" x2="21.5" y2="18.5"/>
<line fill="none" stroke="#333333" stroke-miterlimit="10" x1="12.5" y1="6.5" x2="22" y2="16"/>
<line fill="none" stroke="#333333" stroke-miterlimit="10" x1="2.5" y1="8.5" x2="16.5" y2="22.5"/>
<line fill="none" stroke="#333333" stroke-miterlimit="10" x1="3.5" y1="12.5" x2="13" y2="22"/>
<line fill="none" stroke="#333333" stroke-miterlimit="10" x1="18.5" y1="6.5" x2="4.5" y2="20.5"/>
<line fill="none" stroke="#333333" stroke-miterlimit="10" x1="14.5" y1="6.5" x2="4" y2="17"/>
<line fill="none" stroke="#333333" stroke-miterlimit="10" x1="20.5" y1="8.5" x2="8.5" y2="20.5"/>
<line fill="none" stroke="#333333" stroke-miterlimit="10" x1="21.5" y1="10.5" x2="11" y2="21"/>
<line fill="none" stroke="#333333" stroke-miterlimit="10" x1="11.5" y1="6.5" x2="3.5" y2="14.5"/>
</svg>
